<svg width="20" height="20" viewBox="0 0 20 20" fill="none" xmlns="http://www.w3.org/2000/svg">
<path fill-rule="evenodd" clip-rule="evenodd" d="M10.0002 0C4.47819 0 0 4.5904 0 10.2535C0 14.7836 2.86527 18.6272 6.8388 19.9828C7.33852 20.0778 7.52209 19.7604 7.52209 19.4895C7.52209 19.2451 7.51269 18.4373 7.50846 17.5807C4.72617 18.2008 4.13924 16.3709 4.13924 16.3709C3.68442 15.1856 3.02886 14.8704 3.02886 14.8704C2.12157 14.2342 3.09703 14.2472 3.09703 14.2472C4.1014 14.3195 4.63027 15.304 4.63027 15.304C5.52205 16.8715 6.96973 16.4181 7.54019 16.1562C7.63022 15.4934 7.88924 15.0408 8.1753 14.7849C5.95407 14.5258 3.61908 13.6464 3.61908 9.71751C3.61908 8.59805 4.00973 7.68344 4.64954 6.96525C4.54565 6.70689 4.20341 5.66383 4.74638 4.25155C4.74638 4.25155 5.58598 3.97632 7.49647 5.30305C8.29447 5.07578 9.15006 4.96178 9.99977 4.95793C10.8497 4.96203 11.7058 5.07602 12.5049 5.30305C14.4135 3.97656 15.2522 4.25179 15.2522 4.25179C15.7966 5.66407 15.4544 6.70689 15.3505 6.96549C15.9917 7.6832 16.3795 8.59805 16.3795 9.71775C16.3795 13.6558 14.0401 14.5229 11.8132 14.7764C12.1719 15.0945 12.4915 15.7187 12.4915 16.6755C12.4915 18.0473 12.4803 19.1514 12.4803 19.489C12.4803 19.7613 12.6603 20.0814 13.1671 19.9807C17.1385 18.6233 20 14.7812 20 10.2525C20.0005 4.59064 15.5232 0 10.0002 0Z" fill="white"/>
<path d="M3.7876 14.7215C3.76527 14.7726 3.687 14.7878 3.61601 14.7528C3.54315 14.7191 3.50272 14.6499 3.52622 14.5986C3.54738 14.5465 3.62588 14.5318 3.69852 14.5668C3.77138 14.6005 3.81251 14.6704 3.7876 14.7215ZM4.19259 15.1852C4.14488 15.2302 4.05156 15.2093 3.9881 15.1374C3.92275 15.0659 3.91053 14.9702 3.95895 14.9244C4.00784 14.8791 4.09834 14.9003 4.16345 14.9719C4.22926 15.0442 4.24219 15.1389 4.19236 15.1849L4.19259 15.1852ZM4.58677 15.7751C4.52566 15.819 4.42529 15.778 4.36347 15.6867C4.30189 15.5958 4.30189 15.4867 4.36465 15.4426C4.4267 15.3987 4.52542 15.4382 4.58795 15.5286C4.64953 15.6214 4.64953 15.7308 4.58677 15.7751ZM5.12692 16.3458C5.07215 16.4078 4.95533 16.3911 4.87001 16.3066C4.78257 16.2239 4.75836 16.1065 4.81313 16.0446C4.86883 15.9826 4.98612 16 5.07215 16.0839C5.15912 16.1663 5.18545 16.2841 5.12692 16.3458ZM5.8725 16.677C5.84805 16.7575 5.7357 16.7939 5.62241 16.7599C5.50911 16.7247 5.4353 16.6307 5.45787 16.5497C5.48137 16.4688 5.59467 16.4309 5.70867 16.4673C5.82149 16.502 5.89577 16.595 5.8725 16.677ZM6.69048 16.7384C6.69353 16.8228 6.5974 16.8932 6.47846 16.8946C6.35906 16.8975 6.26221 16.8291 6.2608 16.7457C6.2608 16.6604 6.35482 16.5909 6.47423 16.589C6.59317 16.5866 6.69048 16.6546 6.69048 16.7384ZM7.45204 16.6056C7.46614 16.6881 7.38388 16.7729 7.26565 16.7953C7.14953 16.8175 7.04235 16.7664 7.0273 16.6845C7.0132 16.6001 7.09711 16.5157 7.21299 16.4936C7.33123 16.4724 7.437 16.5218 7.45204 16.6056Z" fill="white"/>
</svg>
