<svg width="18" height="18" viewBox="0 0 18 18" fill="none" xmlns="http://www.w3.org/2000/svg">
<path d="M9 18C4.0293 18 0 13.9707 0 9C0 4.0293 4.0293 0 9 0C13.9707 0 18 4.0293 18 9C18 13.9707 13.9707 18 9 18ZM6.939 15.9003C6.05107 14.0169 5.53668 11.9792 5.4243 9.9H1.8558C2.03115 11.2849 2.60483 12.5892 3.50718 13.6543C4.40953 14.7195 5.60173 15.4997 6.939 15.9003ZM7.227 9.9C7.3629 12.0951 7.9902 14.157 9 15.9768C10.0372 14.109 10.6431 12.0326 10.773 9.9H7.227ZM16.1442 9.9H12.5757C12.4633 11.9792 11.9489 14.0169 11.061 15.9003C12.3983 15.4997 13.5905 14.7195 14.4928 13.6543C15.3952 12.5892 15.9689 11.2849 16.1442 9.9ZM1.8558 8.1H5.4243C5.53668 6.02081 6.05107 3.98312 6.939 2.0997C5.60173 2.50029 4.40953 3.28054 3.50718 4.34569C2.60483 5.41084 2.03115 6.71507 1.8558 8.1ZM7.2279 8.1H10.7721C10.6424 5.96751 10.0369 3.89112 9 2.0232C7.96277 3.89105 7.35695 5.96744 7.227 8.1M11.0601 2.0997C11.9483 3.98305 12.463 6.02075 12.5757 8.1H16.1442C15.9689 6.71507 15.3952 5.41084 14.4928 4.34569C13.5905 3.28054 12.3983 2.50029 11.061 2.0997" fill="#EEEEEE"/>
</svg>
