<svg width="11" height="15" viewBox="0 0 11 15" fill="none" xmlns="http://www.w3.org/2000/svg">
<path d="M5.5 1C3.01562 1 1 2.91853 1 5.28146C1 8.00035 4 12.309 5.10156 13.7972C5.14729 13.86 5.20722 13.9111 5.27646 13.9464C5.34571 13.9816 5.4223 14 5.5 14C5.5777 14 5.65429 13.9816 5.72354 13.9464C5.79278 13.9111 5.85271 13.86 5.89844 13.7972C7 12.3096 10 8.00254 10 5.28146C10 2.91853 7.98438 1 5.5 1Z" stroke="#EEEEEE" stroke-opacity="0.933333" stroke-linecap="round" stroke-linejoin="round"/>
<path d="M5.5 7.00039C6.32843 7.00039 7 6.32879 7 5.50032C7 4.67185 6.32843 4.00024 5.5 4.00024C4.67157 4.00024 4 4.67185 4 5.50032C4 6.32879 4.67157 7.00039 5.5 7.00039Z" stroke="#EEEEEE" stroke-opacity="0.933333" stroke-linecap="round" stroke-linejoin="round"/>
</svg>
