<svg width="18" height="18" viewBox="0 0 18 18" fill="none" xmlns="http://www.w3.org/2000/svg">
<path d="M16.7728 1.65692L16.8211 1.80152L17.3545 3.53849C17.4028 3.69595 17.3885 3.86444 17.3143 4.0128C17.24 4.16117 17.1108 4.27936 16.9506 4.34552L16.8578 4.37715L6.49213 7.15613H17.2762C17.4515 7.15641 17.6207 7.21608 17.7525 7.32408C17.8844 7.43209 17.9699 7.58111 17.9932 7.74355L18 7.83392V15.5147C18 16.1476 17.7419 16.7567 17.2783 17.2176C16.8146 17.6786 16.1804 17.9568 15.505 17.9955L15.3426 18H3.26463C2.58793 18 1.9367 17.7586 1.4438 17.325C0.950886 16.8914 0.653424 16.2983 0.612084 15.6666L0.607252 15.5138V7.92972L0.102834 6.28402C-0.0835889 5.67565 -0.0148216 5.02367 0.295109 4.46109C0.60504 3.8985 1.13279 3.46769 1.7707 3.25652L1.92531 3.20953L13.5346 0.0961739C14.1852 -0.078175 14.8823 -0.0138617 15.4838 0.275996C16.0854 0.565853 16.546 1.05942 16.7718 1.65601M16.5496 8.51082H2.05673V15.5138C2.05673 16.0597 2.47128 16.5152 3.02111 16.62L3.14094 16.6381L3.26463 16.6435H15.3436C15.6425 16.6434 15.9307 16.5397 16.1525 16.3524C16.3744 16.1651 16.5141 15.9076 16.5447 15.6295L16.5505 15.5138L16.5496 8.51082ZM3.76904 4.12591L2.32343 4.51452C2.03632 4.59157 1.78991 4.76537 1.6318 5.00237C1.47368 5.23938 1.41507 5.52276 1.46727 5.79782L1.49626 5.91078L1.82868 6.99616L2.11374 6.91935L3.76904 4.12591ZM8.36485 2.89413L5.73936 3.59813L4.0831 6.39066L6.70955 5.68756L8.36485 2.89413ZM12.9626 1.66053L10.3361 2.36544L8.68083 5.15797L11.3054 4.45487L12.9626 1.66053ZM14.7474 1.44996L13.2776 3.92619L15.7601 3.26014L15.4277 2.17566C15.3786 2.01522 15.2922 1.86693 15.1746 1.74145C15.0569 1.61597 14.911 1.51643 14.7474 1.44996Z" fill="#EEEEEE"/>
</svg>
