<svg width="20" height="19" viewBox="0 0 20 19" fill="none" xmlns="http://www.w3.org/2000/svg">
<path d="M1 18L7.3 3.68421L11.8 14.4211L13.6 9.05263L19 18H1ZM15.85 5.47368C16.4467 5.47368 17.019 5.23802 17.441 4.81853C17.8629 4.39904 18.1 3.83009 18.1 3.23684C18.1 2.64359 17.8629 2.07465 17.441 1.65516C17.019 1.23567 16.4467 1 15.85 1C15.2533 1 14.681 1.23567 14.259 1.65516C13.8371 2.07465 13.6 2.64359 13.6 3.23684C13.6 3.83009 13.8371 4.39904 14.259 4.81853C14.681 5.23802 15.2533 5.47368 15.85 5.47368Z" stroke="#EEEEEE" stroke-opacity="0.933333" stroke-width="2" stroke-linejoin="round"/>
</svg>
