<svg width="18" height="17" viewBox="0 0 18 17" fill="none" xmlns="http://www.w3.org/2000/svg">
<path d="M4.5 3.57895V1.78947C4.5 1.29737 4.6764 0.876246 5.0292 0.526105C5.382 0.175965 5.8056 0.000596491 6.3 0H11.7C12.195 0 12.6189 0.175368 12.9717 0.526105C13.3245 0.876842 13.5006 1.29796 13.5 1.78947V3.57895H16.2C16.695 3.57895 17.1189 3.75432 17.4717 4.10505C17.8245 4.45579 18.0006 4.87691 18 5.36842V15.2105C18 15.7026 17.8239 16.1241 17.4717 16.4748C17.1195 16.8255 16.6956 17.0006 16.2 17H1.8C1.305 17 0.8814 16.8249 0.5292 16.4748C0.177 16.1246 0.0006 15.7032 0 15.2105V5.36842C0 4.87632 0.1764 4.45519 0.5292 4.10505C0.882 3.75491 1.3056 3.57954 1.8 3.57895H4.5ZM6.3 3.57895H11.7V1.78947H6.3V3.57895ZM1.8 13.4211H16.2V10.7368H1.8V13.4211Z" fill="#EEEEEE" fill-opacity="0.933333"/>
</svg>
