<svg width="13" height="13" viewBox="0 0 13 13" fill="none" xmlns="http://www.w3.org/2000/svg">
<path fill-rule="evenodd" clip-rule="evenodd" d="M10.1111 2.29412C10.1111 1.68568 9.88284 1.10216 9.47651 0.671932C9.07018 0.241701 8.51908 0 7.94444 0H5.05556C4.48092 0 3.92982 0.241701 3.52349 0.671932C3.11716 1.10216 2.88889 1.68568 2.88889 2.29412H2.16667C1.59203 2.29412 1.04093 2.53582 0.634602 2.96605C0.228273 3.39628 0 3.9798 0 4.58824V10.7059C0 11.3143 0.228273 11.8978 0.634602 12.3281C1.04093 12.7583 1.59203 13 2.16667 13H10.8333C11.408 13 11.9591 12.7583 12.3654 12.3281C12.7717 11.8978 13 11.3143 13 10.7059V4.58824C13 3.9798 12.7717 3.39628 12.3654 2.96605C11.9591 2.53582 11.408 2.29412 10.8333 2.29412H10.1111ZM7.94444 1.52941H5.05556C4.86401 1.52941 4.68031 1.60998 4.54487 1.75339C4.40942 1.8968 4.33333 2.09131 4.33333 2.29412H8.66667C8.66667 2.09131 8.59058 1.8968 8.45513 1.75339C8.31969 1.60998 8.13599 1.52941 7.94444 1.52941ZM2.16667 3.82353H10.8333C11.0249 3.82353 11.2086 3.9041 11.344 4.04751C11.4795 4.19092 11.5556 4.38542 11.5556 4.58824V10.7059C11.5556 10.9087 11.4795 11.1032 11.344 11.2466C11.2086 11.39 11.0249 11.4706 10.8333 11.4706H2.16667C1.97512 11.4706 1.79142 11.39 1.65598 11.2466C1.52054 11.1032 1.44444 10.9087 1.44444 10.7059V4.58824C1.44444 4.38542 1.52054 4.19092 1.65598 4.04751C1.79142 3.9041 1.97512 3.82353 2.16667 3.82353Z" fill="#EEEEEE"/>
</svg>
