<svg width="16" height="19" viewBox="0 0 16 19" fill="none" xmlns="http://www.w3.org/2000/svg">
<path d="M5.80004 5.85008C6.36004 5.85008 6.81004 5.40008 6.81004 4.84008C6.81004 4.28008 6.36004 3.83008 5.80004 3.83008C5.24004 3.83008 4.79004 4.28008 4.79004 4.84008C4.79004 5.40008 5.24004 5.85008 5.80004 5.85008Z" fill="black"/>
<path fill-rule="evenodd" clip-rule="evenodd" d="M7.83 8.04994C7.83 6.96994 6.92 6.18994 5.8 6.18994C4.68 6.18994 3.77 6.96994 3.77 8.04994V8.55994C3.77 8.64994 3.81 8.73994 3.87 8.79994C3.93 8.85994 4.02 8.89994 4.11 8.89994H7.49C7.58 8.89994 7.67 8.85994 7.73 8.79994C7.79 8.73994 7.83 8.64994 7.83 8.55994V8.04994ZM3.75 10.9999C3.75 10.801 3.82902 10.6103 3.96967 10.4696C4.11032 10.329 4.30109 10.2499 4.5 10.2499H11.5C11.6989 10.2499 11.8897 10.329 12.0303 10.4696C12.171 10.6103 12.25 10.801 12.25 10.9999C12.25 11.1989 12.171 11.3896 12.0303 11.5303C11.8897 11.6709 11.6989 11.7499 11.5 11.7499H4.5C4.30109 11.7499 4.11032 11.6709 3.96967 11.5303C3.82902 11.3896 3.75 11.1989 3.75 10.9999ZM3.75 13.9999C3.75 13.801 3.82902 13.6103 3.96967 13.4696C4.11032 13.329 4.30109 13.2499 4.5 13.2499H11.5C11.6989 13.2499 11.8897 13.329 12.0303 13.4696C12.171 13.6103 12.25 13.801 12.25 13.9999C12.25 14.1989 12.171 14.3896 12.0303 14.5303C11.8897 14.6709 11.6989 14.7499 11.5 14.7499H4.5C4.30109 14.7499 4.11032 14.6709 3.96967 14.5303C3.82902 14.3896 3.75 14.1989 3.75 13.9999Z" fill="black"/>
<path fill-rule="evenodd" clip-rule="evenodd" d="M0.5 2C0.5 0.898 1.398 0 2.5 0H9.19C9.752 0 10.282 0.238 10.655 0.631L10.661 0.638L14.973 5.34C15.332 5.723 15.5 6.224 15.5 6.7V17C15.5 18.102 14.602 19 13.5 19H2.5C1.398 19 0.5 18.102 0.5 17V2ZM9.189 2H2.5V17H13.5V6.692L9.204 2.007L9.201 2.006L9.189 2Z" fill="black"/>
<path fill-rule="evenodd" clip-rule="evenodd" d="M9.19043 0C9.45565 0 9.71 0.105357 9.89754 0.292893C10.0851 0.48043 10.1904 0.734784 10.1904 1V5.7H14.5004C14.6318 5.7 14.7618 5.72587 14.8831 5.77612C15.0044 5.82638 15.1147 5.90003 15.2075 5.99289C15.3004 6.08575 15.3741 6.19599 15.4243 6.31732C15.4746 6.43864 15.5004 6.56868 15.5004 6.7C15.5004 6.83132 15.4746 6.96136 15.4243 7.08268C15.3741 7.20401 15.3004 7.31425 15.2075 7.40711C15.1147 7.49997 15.0044 7.57362 14.8831 7.62388C14.7618 7.67413 14.6318 7.7 14.5004 7.7H9.19043C8.92521 7.7 8.67086 7.59464 8.48332 7.40711C8.29579 7.21957 8.19043 6.96522 8.19043 6.7V1C8.19043 0.734784 8.29579 0.48043 8.48332 0.292893C8.67086 0.105357 8.92521 0 9.19043 0Z" fill="black"/>
</svg>
