<svg width="19" height="15" viewBox="0 0 19 15" fill="none" xmlns="http://www.w3.org/2000/svg">
<path d="M15.0404 3.925C14.9293 5.57722 13.7844 6.85 12.5359 6.85C11.2875 6.85 10.1407 5.57762 10.0314 3.925C9.91759 2.20616 11.0321 1 12.5359 1C14.0398 1 15.1543 2.23744 15.0404 3.925Z" stroke="#2A2929" stroke-linecap="round" stroke-linejoin="round"/>
<path d="M12.5355 9.4502C10.0625 9.4502 7.68436 10.7652 7.08859 13.3262C7.00966 13.665 7.20813 14.0002 7.53333 14.0002H17.5381C17.8633 14.0002 18.0606 13.665 17.9828 13.3262C17.3871 10.7242 15.0089 9.4502 12.5355 9.4502Z" stroke="#2A2929" stroke-miterlimit="10"/>
<path d="M7.37536 4.65362C7.28656 5.97312 6.36141 7.0123 5.36417 7.0123C4.36692 7.0123 3.44025 5.97352 3.35297 4.65362C3.26228 3.2809 4.16276 2.2998 5.36417 2.2998C6.56557 2.2998 7.46605 3.30609 7.37536 4.65362Z" stroke="#2A2929" stroke-linecap="round" stroke-linejoin="round"/>
<path d="M7.60316 9.53107C6.91822 9.19511 6.16383 9.06592 5.36428 9.06592C3.39104 9.06592 1.48989 10.1161 1.01365 12.1615C0.95104 12.4321 1.10966 12.6998 1.36922 12.6998H5.62991" stroke="#2A2929" stroke-miterlimit="10" stroke-linecap="round"/>
</svg>
