<svg width="18" height="18" viewBox="0 0 18 18" fill="none" xmlns="http://www.w3.org/2000/svg">
<mask id="path-1-inside-1_307_920" fill="white">
<path d="M9 18C4.0293 18 0 13.9707 0 9C0 4.0293 4.0293 0 9 0C13.9707 0 18 4.0293 18 9C18 13.9707 13.9707 18 9 18ZM6.939 15.9003C6.05107 14.0169 5.53668 11.9792 5.4243 9.9H1.8558C2.03115 11.2849 2.60483 12.5892 3.50718 13.6543C4.40953 14.7195 5.60173 15.4997 6.939 15.9003ZM7.227 9.9C7.3629 12.0951 7.9902 14.157 9 15.9768C10.0372 14.109 10.6431 12.0326 10.773 9.9H7.227ZM16.1442 9.9H12.5757C12.4633 11.9792 11.9489 14.0169 11.061 15.9003C12.3983 15.4997 13.5905 14.7195 14.4928 13.6543C15.3952 12.5892 15.9689 11.2849 16.1442 9.9ZM1.8558 8.1H5.4243C5.53668 6.02081 6.05107 3.98312 6.939 2.0997C5.60173 2.50029 4.40953 3.28054 3.50718 4.34569C2.60483 5.41084 2.03115 6.71507 1.8558 8.1ZM7.2279 8.1H10.7721C10.6424 5.96751 10.0369 3.89112 9 2.0232C7.96277 3.89105 7.35695 5.96744 7.227 8.1M11.0601 2.0997C11.9483 3.98305 12.463 6.02075 12.5757 8.1H16.1442C15.9689 6.71507 15.3952 5.41084 14.4928 4.34569C13.5905 3.28054 12.3983 2.50029 11.061 2.0997"/>
</mask>
<path d="M9 18C4.0293 18 0 13.9707 0 9C0 4.0293 4.0293 0 9 0C13.9707 0 18 4.0293 18 9C18 13.9707 13.9707 18 9 18ZM6.939 15.9003C6.05107 14.0169 5.53668 11.9792 5.4243 9.9H1.8558C2.03115 11.2849 2.60483 12.5892 3.50718 13.6543C4.40953 14.7195 5.60173 15.4997 6.939 15.9003ZM7.227 9.9C7.3629 12.0951 7.9902 14.157 9 15.9768C10.0372 14.109 10.6431 12.0326 10.773 9.9H7.227ZM16.1442 9.9H12.5757C12.4633 11.9792 11.9489 14.0169 11.061 15.9003C12.3983 15.4997 13.5905 14.7195 14.4928 13.6543C15.3952 12.5892 15.9689 11.2849 16.1442 9.9ZM1.8558 8.1H5.4243C5.53668 6.02081 6.05107 3.98312 6.939 2.0997C5.60173 2.50029 4.40953 3.28054 3.50718 4.34569C2.60483 5.41084 2.03115 6.71507 1.8558 8.1ZM7.2279 8.1H10.7721C10.6424 5.96751 10.0369 3.89112 9 2.0232C7.96277 3.89105 7.35695 5.96744 7.227 8.1M11.0601 2.0997C11.9483 3.98305 12.463 6.02075 12.5757 8.1H16.1442C15.9689 6.71507 15.3952 5.41084 14.4928 4.34569C13.5905 3.28054 12.3983 2.50029 11.061 2.0997" fill="black"/>
<path d="M6.939 15.9003L6.65204 16.8582L8.79945 17.5015L7.84352 15.4739L6.939 15.9003ZM5.4243 9.9L6.42284 9.84603L6.37171 8.9H5.4243V9.9ZM1.8558 9.9V8.9H0.721206L0.86372 10.0256L1.8558 9.9ZM7.227 9.9V8.9H6.16317L6.22891 9.96179L7.227 9.9ZM9 15.9768L8.1256 16.462L8.99968 18.0372L9.87425 16.4623L9 15.9768ZM10.773 9.9L11.7711 9.96082L11.8358 8.9H10.773V9.9ZM16.1442 9.9L17.1363 10.0256L17.2788 8.9H16.1442V9.9ZM12.5757 9.9V8.9H11.6283L11.5772 9.84603L12.5757 9.9ZM11.061 15.9003L10.1565 15.4739L9.20055 17.5015L11.348 16.8582L11.061 15.9003ZM1.8558 8.1L0.86372 7.97439L0.721206 9.1H1.8558V8.1ZM5.4243 8.1V9.1H6.37171L6.42284 8.15397L5.4243 8.1ZM6.939 2.0997L7.84352 2.52613L8.79945 0.49848L6.65204 1.14176L6.939 2.0997ZM10.7721 8.1V9.1H11.8348L11.7703 8.0393L10.7721 8.1ZM9 2.0232L9.87432 1.53785L9.00015 -0.0368975L8.12575 1.53772L9 2.0232ZM12.5757 8.1L11.5772 8.15411L11.6284 9.1H12.5757V8.1ZM16.1442 8.1V9.1H17.2788L17.1363 7.97439L16.1442 8.1ZM9 18V17C4.58158 17 1 13.4184 1 9H0H-1C-1 14.523 3.47702 19 9 19V18ZM0 9H1C1 4.58158 4.58158 1 9 1V0V-1C3.47702 -1 -1 3.47702 -1 9H0ZM9 0V1C13.4184 1 17 4.58158 17 9H18H19C19 3.47702 14.523 -1 9 -1V0ZM18 9H17C17 13.4184 13.4184 17 9 17V18V19C14.523 19 19 14.523 19 9H18ZM6.939 15.9003L7.84352 15.4739C7.01071 13.7074 6.52825 11.7962 6.42284 9.84603L5.4243 9.9L4.42576 9.95397C4.54512 12.1622 5.09144 14.3264 6.03448 16.3267L6.939 15.9003ZM5.4243 9.9V8.9H1.8558V9.9V10.9H5.4243V9.9ZM1.8558 9.9L0.86372 10.0256C1.06339 11.6026 1.71665 13.0878 2.74417 14.3007L3.50718 13.6543L4.27018 13.0079C3.49301 12.0905 2.9989 10.9672 2.84788 9.77439L1.8558 9.9ZM3.50718 13.6543L2.74417 14.3007C3.77169 15.5136 5.12926 16.4021 6.65204 16.8582L6.939 15.9003L7.22596 14.9424C6.07419 14.5973 5.04736 13.9253 4.27018 13.0079L3.50718 13.6543ZM7.227 9.9L6.22891 9.96179C6.37423 12.309 7.04529 14.5151 8.1256 16.462L9 15.9768L9.8744 15.4916C8.93511 13.7989 8.35157 11.8812 8.22509 9.83821L7.227 9.9ZM9 15.9768L9.87425 16.4623C10.984 14.4639 11.6321 12.2424 11.7711 9.96082L10.773 9.9L9.77485 9.83918C9.65398 11.8227 9.0905 13.754 8.12575 15.4913L9 15.9768ZM10.773 9.9V8.9H7.227V9.9V10.9H10.773V9.9ZM16.1442 9.9V8.9H12.5757V9.9V10.9H16.1442V9.9ZM12.5757 9.9L11.5772 9.84603C11.4717 11.7962 10.9893 13.7074 10.1565 15.4739L11.061 15.9003L11.9655 16.3267C12.9086 14.3264 13.4549 12.1622 13.5742 9.95397L12.5757 9.9ZM11.061 15.9003L11.348 16.8582C12.8707 16.4021 14.2283 15.5136 15.2558 14.3007L14.4928 13.6543L13.7298 13.0079C12.9526 13.9253 11.9258 14.5973 10.774 14.9424L11.061 15.9003ZM14.4928 13.6543L15.2558 14.3007C16.2834 13.0878 16.9366 11.6026 17.1363 10.0256L16.1442 9.9L15.1521 9.77439C15.0011 10.9672 14.507 12.0905 13.7298 13.0079L14.4928 13.6543ZM1.8558 8.1V9.1H5.4243V8.1V7.1H1.8558V8.1ZM5.4243 8.1L6.42284 8.15397C6.52825 6.20384 7.01071 4.29264 7.84352 2.52613L6.939 2.0997L6.03448 1.67327C5.09144 3.6736 4.54512 5.83777 4.42576 8.04603L5.4243 8.1ZM6.939 2.0997L6.65204 1.14176C5.12926 1.59792 3.77169 2.4864 2.74417 3.6993L3.50718 4.34569L4.27018 4.99208C5.04736 4.07468 6.07419 3.40267 7.22596 3.05764L6.939 2.0997ZM3.50718 4.34569L2.74417 3.6993C1.71665 4.9122 1.06339 6.39735 0.86372 7.97439L1.8558 8.1L2.84788 8.22561C2.9989 7.03279 3.49301 5.90948 4.27018 4.99208L3.50718 4.34569ZM7.2279 8.1V9.1H10.7721V8.1V7.1H7.2279V8.1ZM10.7721 8.1L11.7703 8.0393C11.6315 5.7578 10.9837 3.5363 9.87432 1.53785L9 2.0232L8.12568 2.50855C9.09013 4.24594 9.65333 6.17723 9.77394 8.1607L10.7721 8.1ZM9 2.0232L8.12575 1.53772C7.01604 3.53609 6.36788 5.75759 6.22885 8.03918L7.227 8.1L8.22515 8.16082C8.34602 6.17729 8.9095 4.246 9.87425 2.50868L9 2.0232ZM11.0601 2.0997L10.1556 2.52627C10.9887 4.29271 11.4715 6.20392 11.5772 8.15411L12.5757 8.1L13.5742 8.04589C13.4546 5.83757 12.9079 3.6734 11.9646 1.67314L11.0601 2.0997ZM12.5757 8.1V9.1H16.1442V8.1V7.1H12.5757V8.1ZM16.1442 8.1L17.1363 7.97439C16.9366 6.39735 16.2834 4.9122 15.2558 3.6993L14.4928 4.34569L13.7298 4.99208C14.507 5.90948 15.0011 7.03279 15.1521 8.22561L16.1442 8.1ZM14.4928 4.34569L15.2558 3.6993C14.2283 2.4864 12.8707 1.59792 11.348 1.14176L11.061 2.0997L10.774 3.05764C11.9258 3.40267 12.9526 4.07468 13.7298 4.99208L14.4928 4.34569Z" fill="black" mask="url(#path-1-inside-1_307_920)"/>
</svg>
