<svg width="18" height="18" viewBox="0 0 18 18" fill="none" xmlns="http://www.w3.org/2000/svg">
<mask id="path-1-inside-1_307_924" fill="white">
<path d="M16.7728 1.65692L16.8211 1.80152L17.3545 3.53849C17.4028 3.69595 17.3885 3.86444 17.3143 4.0128C17.24 4.16117 17.1108 4.27936 16.9506 4.34552L16.8578 4.37715L6.49213 7.15613H17.2762C17.4515 7.15641 17.6207 7.21608 17.7525 7.32408C17.8844 7.43209 17.9699 7.58111 17.9932 7.74355L18 7.83392V15.5147C18 16.1476 17.7419 16.7567 17.2783 17.2176C16.8146 17.6786 16.1804 17.9568 15.505 17.9955L15.3426 18H3.26463C2.58793 18 1.9367 17.7586 1.4438 17.325C0.950886 16.8914 0.653424 16.2983 0.612084 15.6666L0.607252 15.5138V7.92972L0.102834 6.28402C-0.0835889 5.67565 -0.0148216 5.02367 0.295109 4.46109C0.60504 3.8985 1.13279 3.46769 1.7707 3.25652L1.92531 3.20953L13.5346 0.0961739C14.1852 -0.078175 14.8823 -0.0138617 15.4838 0.275996C16.0854 0.565853 16.546 1.05942 16.7718 1.65601M16.5496 8.51082H2.05673V15.5138C2.05673 16.0597 2.47128 16.5152 3.02111 16.62L3.14094 16.6381L3.26463 16.6435H15.3436C15.6425 16.6434 15.9307 16.5397 16.1525 16.3524C16.3744 16.1651 16.5141 15.9076 16.5447 15.6295L16.5505 15.5138L16.5496 8.51082ZM3.76904 4.12591L2.32343 4.51452C2.03632 4.59157 1.78991 4.76537 1.6318 5.00237C1.47368 5.23938 1.41507 5.52276 1.46727 5.79782L1.49626 5.91078L1.82868 6.99616L2.11374 6.91935L3.76904 4.12591ZM8.36485 2.89413L5.73936 3.59813L4.0831 6.39066L6.70955 5.68756L8.36485 2.89413ZM12.9626 1.66053L10.3361 2.36544L8.68083 5.15797L11.3054 4.45487L12.9626 1.66053ZM14.7474 1.44996L13.2776 3.92619L15.7601 3.26014L15.4277 2.17566C15.3786 2.01522 15.2922 1.86693 15.1746 1.74145C15.0569 1.61597 14.911 1.51643 14.7474 1.44996Z"/>
</mask>
<path d="M16.7728 1.65692L16.8211 1.80152L17.3545 3.53849C17.4028 3.69595 17.3885 3.86444 17.3143 4.0128C17.24 4.16117 17.1108 4.27936 16.9506 4.34552L16.8578 4.37715L6.49213 7.15613H17.2762C17.4515 7.15641 17.6207 7.21608 17.7525 7.32408C17.8844 7.43209 17.9699 7.58111 17.9932 7.74355L18 7.83392V15.5147C18 16.1476 17.7419 16.7567 17.2783 17.2176C16.8146 17.6786 16.1804 17.9568 15.505 17.9955L15.3426 18H3.26463C2.58793 18 1.9367 17.7586 1.4438 17.325C0.950886 16.8914 0.653424 16.2983 0.612084 15.6666L0.607252 15.5138V7.92972L0.102834 6.28402C-0.0835889 5.67565 -0.0148216 5.02367 0.295109 4.46109C0.60504 3.8985 1.13279 3.46769 1.7707 3.25652L1.92531 3.20953L13.5346 0.0961739C14.1852 -0.078175 14.8823 -0.0138617 15.4838 0.275996C16.0854 0.565853 16.546 1.05942 16.7718 1.65601M16.5496 8.51082H2.05673V15.5138C2.05673 16.0597 2.47128 16.5152 3.02111 16.62L3.14094 16.6381L3.26463 16.6435H15.3436C15.6425 16.6434 15.9307 16.5397 16.1525 16.3524C16.3744 16.1651 16.5141 15.9076 16.5447 15.6295L16.5505 15.5138L16.5496 8.51082ZM3.76904 4.12591L2.32343 4.51452C2.03632 4.59157 1.78991 4.76537 1.6318 5.00237C1.47368 5.23938 1.41507 5.52276 1.46727 5.79782L1.49626 5.91078L1.82868 6.99616L2.11374 6.91935L3.76904 4.12591ZM8.36485 2.89413L5.73936 3.59813L4.0831 6.39066L6.70955 5.68756L8.36485 2.89413ZM12.9626 1.66053L10.3361 2.36544L8.68083 5.15797L11.3054 4.45487L12.9626 1.66053ZM14.7474 1.44996L13.2776 3.92619L15.7601 3.26014L15.4277 2.17566C15.3786 2.01522 15.2922 1.86693 15.1746 1.74145C15.0569 1.61597 14.911 1.51643 14.7474 1.44996Z" fill="black"/>
<path d="M16.8211 1.80152L17.777 1.50796L17.7734 1.49623L17.7695 1.4846L16.8211 1.80152ZM17.3545 3.53849L18.3105 3.24513L18.3104 3.24493L17.3545 3.53849ZM16.9506 4.34552L17.2733 5.29201L17.3031 5.28185L17.3322 5.26983L16.9506 4.34552ZM16.8578 4.37715L17.1168 5.34304L17.149 5.33441L17.1805 5.32364L16.8578 4.37715ZM6.49213 7.15613L6.23318 6.19023L6.49213 8.15613V7.15613ZM17.2762 7.15613L17.2779 6.15613H17.2762V7.15613ZM17.9932 7.74355L18.9904 7.66891L18.9879 7.63491L18.983 7.60117L17.9932 7.74355ZM18 7.83392H19V7.79655L18.9972 7.75929L18 7.83392ZM18 15.5147H17V15.5148L18 15.5147ZM15.505 17.9955L15.5328 18.9951L15.5475 18.9947L15.5621 18.9938L15.505 17.9955ZM15.3426 18V19H15.3565L15.3704 18.9996L15.3426 18ZM3.26463 18V17H3.26458L3.26463 18ZM0.612084 15.6666L-0.387416 15.6982L-0.386883 15.715L-0.385782 15.7319L0.612084 15.6666ZM0.607252 15.5138H-0.392748V15.5296L-0.392248 15.5455L0.607252 15.5138ZM0.607252 7.92972H1.60725V7.77991L1.56335 7.63667L0.607252 7.92972ZM0.102834 6.28402L-0.853284 6.577L-0.853263 6.57708L0.102834 6.28402ZM1.7707 3.25652L1.47989 2.29974L1.46812 2.30332L1.45644 2.30719L1.7707 3.25652ZM1.92531 3.20953L1.66628 2.24366L1.65032 2.24794L1.6345 2.25275L1.92531 3.20953ZM13.5346 0.0961739L13.2758 -0.869735L13.2756 -0.869697L13.5346 0.0961739ZM16.5496 8.51082L17.5496 8.51068L17.5494 7.51082H16.5496V8.51082ZM2.05673 8.51082V7.51082H1.05673V8.51082H2.05673ZM3.02111 16.62L2.83382 17.6023L2.85283 17.6059L2.87197 17.6088L3.02111 16.62ZM3.14094 16.6381L2.99179 17.6269L3.04419 17.6348L3.09714 17.6371L3.14094 16.6381ZM3.26463 16.6435L3.22082 17.6425L3.24271 17.6435H3.26463V16.6435ZM15.3436 16.6435V17.6435H15.3439L15.3436 16.6435ZM16.5447 15.6295L17.5387 15.7389L17.542 15.7093L17.5435 15.6796L16.5447 15.6295ZM16.5505 15.5138L17.5493 15.5639L17.5505 15.5388L17.5505 15.5137L16.5505 15.5138ZM3.76904 4.12591L4.62934 4.6357L5.88154 2.52254L3.50944 3.1602L3.76904 4.12591ZM2.32343 4.51452L2.58261 5.48035L2.58303 5.48023L2.32343 4.51452ZM1.46727 5.79782L0.484817 5.9843L0.49075 6.01556L0.49866 6.04638L1.46727 5.79782ZM1.49626 5.91078L0.527649 6.15935L0.533366 6.18163L0.540102 6.20362L1.49626 5.91078ZM1.82868 6.99616L0.872515 7.289L1.15557 8.21322L2.08887 7.96172L1.82868 6.99616ZM2.11374 6.91935L2.37393 7.8849L2.76668 7.77907L2.97404 7.42913L2.11374 6.91935ZM8.36485 2.89413L9.22515 3.40391L10.4762 1.29265L8.10585 1.92825L8.36485 2.89413ZM5.73936 3.59813L5.48037 2.63226L5.08702 2.73773L4.87927 3.088L5.73936 3.59813ZM4.0831 6.39066L3.223 5.88054L1.97112 7.99126L4.34169 7.35665L4.0831 6.39066ZM6.70955 5.68756L6.96814 6.65355L7.362 6.54811L7.56985 6.19735L6.70955 5.68756ZM12.9626 1.66053L13.8227 2.17064L15.0756 0.0580275L12.7034 0.694714L12.9626 1.66053ZM10.3361 2.36544L10.0769 1.39962L9.68358 1.50519L9.47591 1.85553L10.3361 2.36544ZM8.68083 5.15797L7.82061 4.64807L6.56939 6.75889L8.93961 6.12391L8.68083 5.15797ZM11.3054 4.45487L11.5641 5.42081L11.9576 5.31539L12.1655 4.96498L11.3054 4.45487ZM14.7474 1.44996L15.1236 0.523444L14.3265 0.199763L13.8874 0.939551L14.7474 1.44996ZM13.2776 3.92619L12.4177 3.41578L11.1635 5.52877L13.5367 4.89203L13.2776 3.92619ZM15.7601 3.26014L16.0192 4.22598L17.0198 3.95753L16.7162 2.96708L15.7601 3.26014ZM15.4277 2.17566L14.4713 2.46798L14.4716 2.46872L15.4277 2.17566ZM16.7728 1.65692L15.8243 1.97383L15.8726 2.11843L16.8211 1.80152L17.7695 1.4846L17.7212 1.34001L16.7728 1.65692ZM16.8211 1.80152L15.8652 2.09508L16.3986 3.83205L17.3545 3.53849L18.3104 3.24493L17.777 1.50796L16.8211 1.80152ZM17.3545 3.53849L16.3985 3.83185C16.3708 3.74157 16.3802 3.64485 16.42 3.56523L17.3143 4.0128L18.2085 4.46038C18.3969 4.08402 18.4348 3.65032 18.3105 3.24513L17.3545 3.53849ZM17.3143 4.0128L16.42 3.56523C16.4588 3.48778 16.5174 3.4425 16.5689 3.42121L16.9506 4.34552L17.3322 5.26983C17.7043 5.11622 18.0212 4.83455 18.2085 4.46038L17.3143 4.0128ZM16.9506 4.34552L16.6279 3.39903L16.5351 3.43066L16.8578 4.37715L17.1805 5.32364L17.2733 5.29201L16.9506 4.34552ZM16.8578 4.37715L16.5989 3.41126L6.23318 6.19023L6.49213 7.15613L6.75107 8.12202L17.1168 5.34304L16.8578 4.37715ZM6.49213 7.15613V8.15613H17.2762V7.15613V6.15613H6.49213V7.15613ZM17.2762 7.15613L17.2746 8.15612C17.2265 8.15605 17.1707 8.14015 17.1188 8.09763L17.7525 7.32408L18.3863 6.55054C18.0707 6.29201 17.6765 6.15677 17.2779 6.15613L17.2762 7.15613ZM17.7525 7.32408L17.1188 8.09763C17.0654 8.05387 17.0171 7.98128 17.0034 7.88594L17.9932 7.74355L18.983 7.60117C18.9226 7.18094 18.7033 6.8103 18.3863 6.55054L17.7525 7.32408ZM17.9932 7.74355L16.996 7.81819L17.0028 7.90856L18 7.83392L18.9972 7.75929L18.9904 7.66891L17.9932 7.74355ZM18 7.83392H17V15.5147H18H19V7.83392H18ZM18 15.5147L17 15.5148C17 15.8717 16.855 16.2283 16.5732 16.5085L17.2783 17.2176L17.9833 17.9268C18.6288 17.285 19 16.4235 19 15.5147L18 15.5147ZM17.2783 17.2176L16.5732 16.5085C16.2894 16.7907 15.8885 16.9719 15.4478 16.9971L15.505 17.9955L15.5621 18.9938C16.4723 18.9417 17.3398 18.5666 17.9833 17.9268L17.2783 17.2176ZM15.505 17.9955L15.4771 16.9959L15.3148 17.0004L15.3426 18L15.3704 18.9996L15.5328 18.9951L15.505 17.9955ZM15.3426 18V17H3.26463V18V19H15.3426V18ZM3.26463 18L3.26458 17C2.82282 17 2.40857 16.8419 2.1043 16.5742L1.4438 17.325L0.783295 18.0758C1.46484 18.6754 2.35303 19 3.26467 19L3.26463 18ZM1.4438 17.325L2.1043 16.5742C1.80193 16.3082 1.6333 15.9581 1.60995 15.6013L0.612084 15.6666L-0.385782 15.7319C-0.326453 16.6384 0.0998455 17.4746 0.783295 18.0758L1.4438 17.325ZM0.612084 15.6666L1.61158 15.6349L1.60675 15.4822L0.607252 15.5138L-0.392248 15.5455L-0.387416 15.6982L0.612084 15.6666ZM0.607252 15.5138H1.60725V7.92972H0.607252H-0.392748V15.5138H0.607252ZM0.607252 7.92972L1.56335 7.63667L1.05893 5.99097L0.102834 6.28402L-0.853263 6.57708L-0.348845 8.22277L0.607252 7.92972ZM0.102834 6.28402L1.05895 5.99104C0.952648 5.64413 0.990231 5.27173 1.17099 4.94362L0.295109 4.46109L-0.580772 3.97856C-1.01987 4.77562 -1.11983 5.70717 -0.853284 6.577L0.102834 6.28402ZM0.295109 4.46109L1.17099 4.94362C1.35321 4.61285 1.67424 4.34182 2.08496 4.20586L1.7707 3.25652L1.45644 2.30719C0.59133 2.59356 -0.143132 3.18416 -0.580772 3.97856L0.295109 4.46109ZM1.7707 3.25652L2.06151 4.2133L2.21612 4.16631L1.92531 3.20953L1.6345 2.25275L1.47989 2.29974L1.7707 3.25652ZM1.92531 3.20953L2.18433 4.1754L13.7937 1.06204L13.5346 0.0961739L13.2756 -0.869697L1.66628 2.24366L1.92531 3.20953ZM13.5346 0.0961739L13.7935 1.06208C14.2149 0.949149 14.666 0.991945 15.0497 1.17687L15.4838 0.275996L15.9179 -0.624875C15.0986 -1.01967 14.1554 -1.1055 13.2758 -0.869735L13.5346 0.0961739ZM15.4838 0.275996L15.0497 1.17687C15.4322 1.36117 15.7061 1.66531 15.8366 2.00998L16.7718 1.65601L17.7071 1.30205C17.3859 0.453522 16.7385 -0.229465 15.9179 -0.624875L15.4838 0.275996ZM16.5496 8.51082V7.51082H2.05673V8.51082V9.51082H16.5496V8.51082ZM2.05673 8.51082H1.05673V15.5138H2.05673H3.05673V8.51082H2.05673ZM2.05673 15.5138H1.05673C1.05673 16.5943 1.86811 17.4182 2.83382 17.6023L3.02111 16.62L3.2084 15.6377C3.14917 15.6264 3.10656 15.5978 3.08233 15.5704C3.06001 15.5451 3.05673 15.5264 3.05673 15.5138H2.05673ZM3.02111 16.62L2.87197 17.6088L2.99179 17.6269L3.14094 16.6381L3.29008 15.6493L3.17026 15.6312L3.02111 16.62ZM3.14094 16.6381L3.09714 17.6371L3.22082 17.6425L3.26463 16.6435L3.30843 15.6445L3.18474 15.639L3.14094 16.6381ZM3.26463 16.6435V17.6435H15.3436V16.6435V15.6435H3.26463V16.6435ZM15.3436 16.6435L15.3439 17.6435C15.8712 17.6433 16.3897 17.4609 16.7976 17.1165L16.1525 16.3524L15.5075 15.5883C15.4717 15.6185 15.4137 15.6435 15.3433 15.6435L15.3436 16.6435ZM16.1525 16.3524L16.7976 17.1165C17.2072 16.7708 17.4789 16.2824 17.5387 15.7389L16.5447 15.6295L15.5507 15.5201C15.5493 15.5327 15.5416 15.5595 15.5075 15.5883L16.1525 16.3524ZM16.5447 15.6295L17.5435 15.6796L17.5493 15.5639L16.5505 15.5138L15.5518 15.4638L15.546 15.5795L16.5447 15.6295ZM16.5505 15.5138L17.5505 15.5137L17.5496 8.51068L16.5496 8.51082L15.5496 8.51096L15.5505 15.514L16.5505 15.5138ZM3.76904 4.12591L3.50944 3.1602L2.06383 3.5488L2.32343 4.51452L2.58303 5.48023L4.02864 5.09163L3.76904 4.12591ZM2.32343 4.51452L2.06425 3.54869C1.55383 3.68566 1.09901 3.9991 0.799933 4.44739L1.6318 5.00237L2.46366 5.55735C2.48081 5.53164 2.51881 5.49747 2.58261 5.48035L2.32343 4.51452ZM1.6318 5.00237L0.799933 4.44739C0.499319 4.89799 0.382805 5.44687 0.484817 5.9843L1.46727 5.79782L2.44973 5.61133C2.44826 5.60359 2.44833 5.59615 2.44994 5.58837C2.45156 5.58052 2.45528 5.56991 2.46366 5.55735L1.6318 5.00237ZM1.46727 5.79782L0.49866 6.04638L0.527649 6.15935L1.49626 5.91078L2.46488 5.66222L2.43589 5.54925L1.46727 5.79782ZM1.49626 5.91078L0.540102 6.20362L0.872515 7.289L1.82868 6.99616L2.78484 6.70333L2.45243 5.61795L1.49626 5.91078ZM1.82868 6.99616L2.08887 7.96172L2.37393 7.8849L2.11374 6.91935L1.85355 5.95379L1.56848 6.03061L1.82868 6.99616ZM2.11374 6.91935L2.97404 7.42913L4.62934 4.6357L3.76904 4.12591L2.90874 3.61613L1.25344 6.40956L2.11374 6.91935ZM8.36485 2.89413L8.10585 1.92825L5.48037 2.63226L5.73936 3.59813L5.99836 4.56401L8.62384 3.86001L8.36485 2.89413ZM5.73936 3.59813L4.87927 3.088L3.223 5.88054L4.0831 6.39066L4.94319 6.90079L6.59946 4.10826L5.73936 3.59813ZM4.0831 6.39066L4.34169 7.35665L6.96814 6.65355L6.70955 5.68756L6.45095 4.72158L3.8245 5.42468L4.0831 6.39066ZM6.70955 5.68756L7.56985 6.19735L9.22515 3.40391L8.36485 2.89413L7.50455 2.38434L5.84925 5.17777L6.70955 5.68756ZM12.9626 1.66053L12.7034 0.694714L10.0769 1.39962L10.3361 2.36544L10.5954 3.33126L13.2218 2.62635L12.9626 1.66053ZM10.3361 2.36544L9.47591 1.85553L7.82061 4.64807L8.68083 5.15797L9.54106 5.66788L11.1964 2.87535L10.3361 2.36544ZM8.68083 5.15797L8.93961 6.12391L11.5641 5.42081L11.3054 4.45487L11.0466 3.48893L8.42206 4.19204L8.68083 5.15797ZM11.3054 4.45487L12.1655 4.96498L13.8227 2.17064L12.9626 1.66053L12.1025 1.15043L10.4452 3.94477L11.3054 4.45487ZM14.7474 1.44996L13.8874 0.939551L12.4177 3.41578L13.2776 3.92619L14.1375 4.4366L15.6073 1.96038L14.7474 1.44996ZM13.2776 3.92619L13.5367 4.89203L16.0192 4.22598L15.7601 3.26014L15.5009 2.2943L13.0185 2.96035L13.2776 3.92619ZM15.7601 3.26014L16.7162 2.96708L16.3838 1.8826L15.4277 2.17566L14.4716 2.46872L14.804 3.5532L15.7601 3.26014ZM15.4277 2.17566L16.384 1.88334C16.2891 1.573 16.1235 1.29161 15.9041 1.05754L15.1746 1.74145L14.445 2.42536C14.4608 2.44225 14.4681 2.45743 14.4713 2.46798L15.4277 2.17566ZM15.1746 1.74145L15.9041 1.05754C15.6849 0.82371 15.4175 0.642776 15.1236 0.523444L14.7474 1.44996L14.3711 2.37648C14.4046 2.39008 14.4289 2.40824 14.445 2.42536L15.1746 1.74145Z" fill="black" mask="url(#path-1-inside-1_307_924)"/>
</svg>
