<svg width="18" height="17" viewBox="0 0 18 17" fill="none" xmlns="http://www.w3.org/2000/svg">
<path d="M11.7002 0.5C12.0623 0.500044 12.3595 0.62278 12.6191 0.880859C12.8786 1.13887 13.0004 1.43272 13 1.78906V4.0791H16.2002C16.5623 4.07915 16.8595 4.20188 17.1191 4.45996C17.3786 4.71795 17.5004 5.01186 17.5 5.36816V15.2109C17.4999 15.5682 17.3779 15.8623 17.1191 16.1201C16.8605 16.3777 16.5629 16.5004 16.2002 16.5H1.7998C1.43749 16.5 1.14065 16.3774 0.881836 16.1201C0.65548 15.8951 0.533198 15.6417 0.505859 15.3418L0.5 15.21V5.36816C0.500058 5.01094 0.622614 4.71723 0.881836 4.45996C1.10918 4.23441 1.36511 4.11223 1.66797 4.08496L1.80078 4.0791H5V1.78906C5.00009 1.43191 5.12265 1.13809 5.38184 0.880859C5.60917 0.655352 5.86514 0.533126 6.16797 0.505859L6.30078 0.5H11.7002ZM1.2998 13.9209H16.7002V10.2373H1.2998V13.9209ZM5.7998 4.0791H12.2002V1.28906H5.7998V4.0791Z" fill="black" stroke="black"/>
</svg>
